<mxfile host="Electron" agent="Mozilla/5.0 (X11; Linux x86_64) AppleWebKit/537.36 (KHTML, like Gecko) draw.io/26.0.4 Chrome/128.0.6613.186 Electron/32.2.5 Safari/537.36" version="26.0.4">
  <diagram name="Page-1" id="pIRNjRb8tWcm5c7OerQU">
    <mxGraphModel dx="1114" dy="1198" grid="1" gridSize="10" guides="1" tooltips="1" connect="1" arrows="1" fold="1" page="1" pageScale="1" pageWidth="850" pageHeight="1100" math="0" shadow="0">
      <root>
        <mxCell id="0" />
        <mxCell id="1" parent="0" />
        <mxCell id="rbmrbKXGU0eJW1unqa-g-26" style="edgeStyle=orthogonalEdgeStyle;rounded=0;orthogonalLoop=1;jettySize=auto;html=1;startArrow=classic;startFill=1;" edge="1" parent="1" source="rbmrbKXGU0eJW1unqa-g-4" target="rbmrbKXGU0eJW1unqa-g-27">
          <mxGeometry relative="1" as="geometry">
            <mxPoint x="502" y="485" as="targetPoint" />
          </mxGeometry>
        </mxCell>
        <mxCell id="rbmrbKXGU0eJW1unqa-g-4" value="AWS Global Accelerator&lt;div&gt;&lt;b&gt;Fized IPv4: 1.2.3.4&lt;/b&gt;&lt;/div&gt;" style="sketch=0;points=[[0,0,0],[0.25,0,0],[0.5,0,0],[0.75,0,0],[1,0,0],[0,1,0],[0.25,1,0],[0.5,1,0],[0.75,1,0],[1,1,0],[0,0.25,0],[0,0.5,0],[0,0.75,0],[1,0.25,0],[1,0.5,0],[1,0.75,0]];outlineConnect=0;fontColor=#232F3E;fillColor=#8C4FFF;strokeColor=#ffffff;dashed=0;verticalLabelPosition=bottom;verticalAlign=top;align=center;html=1;fontSize=12;fontStyle=0;aspect=fixed;shape=mxgraph.aws4.resourceIcon;resIcon=mxgraph.aws4.global_accelerator;" vertex="1" parent="1">
          <mxGeometry x="270" y="446" width="78" height="78" as="geometry" />
        </mxCell>
        <mxCell id="rbmrbKXGU0eJW1unqa-g-17" value="sa-east-1" style="points=[[0,0],[0.25,0],[0.5,0],[0.75,0],[1,0],[1,0.25],[1,0.5],[1,0.75],[1,1],[0.75,1],[0.5,1],[0.25,1],[0,1],[0,0.75],[0,0.5],[0,0.25]];outlineConnect=0;gradientColor=none;html=1;whiteSpace=wrap;fontSize=12;fontStyle=0;container=1;pointerEvents=0;collapsible=0;recursiveResize=0;shape=mxgraph.aws4.group;grIcon=mxgraph.aws4.group_region;strokeColor=#00A4A6;fillColor=none;verticalAlign=top;align=left;spacingLeft=30;fontColor=#147EBA;dashed=1;" vertex="1" parent="1">
          <mxGeometry x="490" y="385" width="310" height="395" as="geometry" />
        </mxCell>
        <mxCell id="rbmrbKXGU0eJW1unqa-g-32" value="attached" style="edgeStyle=orthogonalEdgeStyle;rounded=0;orthogonalLoop=1;jettySize=auto;html=1;" edge="1" parent="rbmrbKXGU0eJW1unqa-g-17" source="rbmrbKXGU0eJW1unqa-g-31" target="rbmrbKXGU0eJW1unqa-g-27">
          <mxGeometry relative="1" as="geometry" />
        </mxCell>
        <mxCell id="rbmrbKXGU0eJW1unqa-g-27" value="Application Load Balancer" style="sketch=0;outlineConnect=0;fontColor=#232F3E;gradientColor=none;fillColor=#8C4FFF;strokeColor=none;dashed=0;verticalLabelPosition=top;verticalAlign=bottom;align=center;html=1;fontSize=12;fontStyle=0;aspect=fixed;pointerEvents=1;shape=mxgraph.aws4.application_load_balancer;labelPosition=center;" vertex="1" parent="rbmrbKXGU0eJW1unqa-g-17">
          <mxGeometry x="50" y="61" width="78" height="78" as="geometry" />
        </mxCell>
        <mxCell id="rbmrbKXGU0eJW1unqa-g-28" value="EC2 Instances" style="sketch=0;points=[[0,0,0],[0.25,0,0],[0.5,0,0],[0.75,0,0],[1,0,0],[0,1,0],[0.25,1,0],[0.5,1,0],[0.75,1,0],[1,1,0],[0,0.25,0],[0,0.5,0],[0,0.75,0],[1,0.25,0],[1,0.5,0],[1,0.75,0]];outlineConnect=0;fontColor=#232F3E;fillColor=#ED7100;strokeColor=#ffffff;dashed=0;verticalLabelPosition=bottom;verticalAlign=top;align=center;html=1;fontSize=12;fontStyle=0;aspect=fixed;shape=mxgraph.aws4.resourceIcon;resIcon=mxgraph.aws4.ec2;" vertex="1" parent="rbmrbKXGU0eJW1unqa-g-17">
          <mxGeometry x="210" y="61" width="78" height="78" as="geometry" />
        </mxCell>
        <mxCell id="rbmrbKXGU0eJW1unqa-g-30" style="edgeStyle=orthogonalEdgeStyle;rounded=0;orthogonalLoop=1;jettySize=auto;html=1;entryX=0;entryY=0.5;entryDx=0;entryDy=0;entryPerimeter=0;startArrow=classic;startFill=1;" edge="1" parent="rbmrbKXGU0eJW1unqa-g-17" source="rbmrbKXGU0eJW1unqa-g-27" target="rbmrbKXGU0eJW1unqa-g-28">
          <mxGeometry relative="1" as="geometry" />
        </mxCell>
        <mxCell id="rbmrbKXGU0eJW1unqa-g-31" value="AWS WAF" style="sketch=0;points=[[0,0,0],[0.25,0,0],[0.5,0,0],[0.75,0,0],[1,0,0],[0,1,0],[0.25,1,0],[0.5,1,0],[0.75,1,0],[1,1,0],[0,0.25,0],[0,0.5,0],[0,0.75,0],[1,0.25,0],[1,0.5,0],[1,0.75,0]];outlineConnect=0;fontColor=#232F3E;fillColor=#DD344C;strokeColor=#ffffff;dashed=0;verticalLabelPosition=bottom;verticalAlign=top;align=center;html=1;fontSize=12;fontStyle=0;aspect=fixed;shape=mxgraph.aws4.resourceIcon;resIcon=mxgraph.aws4.waf;" vertex="1" parent="rbmrbKXGU0eJW1unqa-g-17">
          <mxGeometry x="50" y="229" width="78" height="78" as="geometry" />
        </mxCell>
        <mxCell id="rbmrbKXGU0eJW1unqa-g-33" value="WebACL" style="sketch=0;outlineConnect=0;fontColor=#232F3E;gradientColor=none;fillColor=#DD344C;strokeColor=none;dashed=0;verticalLabelPosition=bottom;verticalAlign=top;align=center;html=1;fontSize=12;fontStyle=0;aspect=fixed;pointerEvents=1;shape=mxgraph.aws4.waf_rule;" vertex="1" parent="rbmrbKXGU0eJW1unqa-g-17">
          <mxGeometry x="150" y="242.5" width="51" height="51" as="geometry" />
        </mxCell>
        <mxCell id="rbmrbKXGU0eJW1unqa-g-34" value="WebACL must be in the same&lt;div&gt;AWS Region as ALB&lt;/div&gt;" style="text;html=1;align=center;verticalAlign=middle;resizable=0;points=[];autosize=1;strokeColor=none;fillColor=none;fontStyle=1" vertex="1" parent="rbmrbKXGU0eJW1unqa-g-17">
          <mxGeometry x="65" y="345" width="180" height="40" as="geometry" />
        </mxCell>
        <mxCell id="rbmrbKXGU0eJW1unqa-g-24" style="edgeStyle=orthogonalEdgeStyle;rounded=0;orthogonalLoop=1;jettySize=auto;html=1;startArrow=classic;startFill=1;" edge="1" parent="1" source="rbmrbKXGU0eJW1unqa-g-25" target="rbmrbKXGU0eJW1unqa-g-4">
          <mxGeometry relative="1" as="geometry" />
        </mxCell>
        <mxCell id="rbmrbKXGU0eJW1unqa-g-25" value="Users" style="sketch=0;outlineConnect=0;fontColor=#232F3E;gradientColor=none;fillColor=#232F3D;strokeColor=none;dashed=0;verticalLabelPosition=bottom;verticalAlign=top;align=center;html=1;fontSize=12;fontStyle=0;aspect=fixed;pointerEvents=1;shape=mxgraph.aws4.users;" vertex="1" parent="1">
          <mxGeometry x="40" y="446" width="78" height="78" as="geometry" />
        </mxCell>
      </root>
    </mxGraphModel>
  </diagram>
</mxfile>
